<?xml version="1.0" encoding="UTF-8" standalone="no"?>
<svg width="29px" height="18px" viewBox="0 0 29 18" version="1.1" xmlns="http://www.w3.org/2000/svg" xmlns:xlink="http://www.w3.org/1999/xlink">
    <!-- Generator: Sketch 3.6.1 (26313) - http://www.bohemiancoding.com/sketch -->
    <title>arrows</title>
    <desc>Created with Sketch.</desc>
    <defs></defs>
    <g id="Page-1" stroke="none" stroke-width="1" fill="none" fill-rule="evenodd">
        <g id="PayCrave-Case-Study" transform="translate(-86.000000, -51.000000)" fill="#FFFFFF">
            <g id="arrows" transform="translate(86.000000, 51.000000)">
                <g id="Capa_1">
                    <path d="M27.6756908,7.753392 L4.27522195,7.753392 L9.85891521,2.193984 C10.3480823,1.707264 10.3480823,0.917712 9.85891521,0.431064 C9.36974813,-0.055944 8.57669576,-0.055944 8.08825187,0.431064 L0.366875312,8.118504 C-0.122291771,8.605224 -0.122291771,9.394848 0.366875312,9.881424 L8.08825187,17.569224 C8.33276309,17.8128 8.65320948,17.934408 8.97358354,17.934408 C9.29395761,17.934408 9.61440399,17.8128 9.85891521,17.569224 C10.3480823,17.082504 10.3480823,16.292952 9.85891521,15.806376 L4.27522195,10.24668 L27.6756908,10.24668 C28.367207,10.24668 28.9279701,9.688464 28.9279701,9 C28.9279701,8.311536 28.3672793,7.753392 27.6756908,7.753392 L27.6756908,7.753392 Z" id="Shape"></path>
                </g>
            </g>
        </g>
    </g>
</svg>