<?xml version="1.0" encoding="UTF-8" standalone="no"?>
<svg width="169px" height="153px" viewBox="0 0 169 153" version="1.1" xmlns="http://www.w3.org/2000/svg" xmlns:xlink="http://www.w3.org/1999/xlink">
    <!-- Generator: Sketch 3.6.1 (26313) - http://www.bohemiancoding.com/sketch -->
    <title>multimedia</title>
    <desc>Created with Sketch.</desc>
    <defs></defs>
    <g id="Page-1" stroke="none" stroke-width="1" fill="none" fill-rule="evenodd">
        <g id="UX-Portfolio" transform="translate(-636.000000, -1492.000000)" fill="#58C9B9">
            <g id="Service" transform="translate(185.000000, 1341.000000)">
                <g id="Development" transform="translate(377.000000, 151.000000)">
                    <g id="multimedia" transform="translate(74.000000, 0.000000)">
                        <g id="Group">
                            <path d="M60.0912887,67.2061479 C59.3298803,65.9279155 57.6766901,65.5087817 56.3988169,66.2705493 L25.0198099,84.9606127 C24.204169,85.4461901 23.7042254,86.3254014 23.7042254,87.2746479 C23.7042254,88.2238944 24.204169,89.1031056 25.0194507,89.5886831 L56.3984577,108.278746 C56.8305211,108.536261 57.3053239,108.658732 57.7743803,108.658732 C58.6923803,108.658732 59.5873944,108.188958 60.0909296,107.343148 C60.852338,106.064915 60.4332042,104.411725 59.155331,103.650676 L31.661662,87.2746479 L59.155331,70.8986197 C60.4335634,70.1375704 60.8526972,68.4843803 60.0912887,67.2061479 L60.0912887,67.2061479 Z" id="Shape"></path>
                            <path d="M108.711887,107.343148 C109.215782,108.189317 110.110437,108.658732 111.028437,108.658732 C111.497493,108.658732 111.972296,108.536261 112.404359,108.278746 L143.783366,89.5886831 C144.599007,89.1027465 145.098592,88.2238944 145.098592,87.2746479 C145.098592,86.3254014 144.598648,85.4461901 143.783366,84.9606127 L112.404359,66.2705493 C111.126486,65.5091408 109.472577,65.9279155 108.711887,67.2061479 C107.950479,68.4843803 108.369613,70.1375704 109.647486,70.8986197 L137.141155,87.2746479 L109.647486,103.650676 C108.369254,104.411725 107.95012,106.064915 108.711887,107.343148 L108.711887,107.343148 Z" id="Shape"></path>
                            <path d="M94.716338,67.0829577 L69.6139225,104.463085 C68.7846338,105.697859 69.1132606,107.371521 70.3483944,108.201169 C70.8095493,108.510761 71.3314014,108.658732 71.8478662,108.658732 C72.7152254,108.658732 73.5667817,108.240317 74.0864789,107.466338 L99.1888944,70.0862113 C100.018183,68.8514366 99.6895563,67.1777746 98.4544225,66.3481268 C97.2185704,65.518838 95.5452676,65.8481831 94.716338,67.0829577 L94.716338,67.0829577 Z" id="Shape"></path>
                            <path d="M166.109155,0.179577465 L2.69366197,0.179577465 C1.2056831,0.179577465 0,1.38561972 0,2.87323944 L0,150.126761 C0,151.61438 1.2056831,152.820423 2.69366197,152.820423 L166.109155,152.820423 C167.597134,152.820423 168.802817,151.61438 168.802817,150.126761 L168.802817,121.394366 C168.802817,119.906746 167.597134,118.700704 166.109155,118.700704 C164.621176,118.700704 163.415493,119.906746 163.415493,121.394366 L163.415493,147.433099 L5.38732394,147.433099 L5.38732394,27.1161972 L163.415493,27.1161972 L163.415493,110.619718 C163.415493,112.107338 164.621176,113.31338 166.109155,113.31338 C167.597134,113.31338 168.802817,112.107338 168.802817,110.619718 L168.802817,2.87323944 C168.802817,1.38561972 167.597134,0.179577465 166.109155,0.179577465 L166.109155,0.179577465 Z M5.38732394,5.56690141 L105.052817,5.56690141 L105.052817,21.7288732 L5.38732394,21.7288732 L5.38732394,5.56690141 L5.38732394,5.56690141 Z M110.440141,21.7288732 L110.440141,5.56690141 L163.415493,5.56690141 L163.415493,21.7288732 L110.440141,21.7288732 L110.440141,21.7288732 Z" id="Shape"></path>
                            <path d="M137.017606,10.7746479 C135.433373,10.7746479 134.144366,12.0636549 134.144366,13.6478873 C134.144366,15.2321197 135.433373,16.5211268 137.017606,16.5211268 C138.601838,16.5211268 139.890845,15.2321197 139.890845,13.6478873 C139.890845,12.0636549 138.601838,10.7746479 137.017606,10.7746479 L137.017606,10.7746479 Z" id="Shape"></path>
                            <path d="M122.292254,10.7746479 C120.708021,10.7746479 119.419014,12.0636549 119.419014,13.6478873 C119.419014,15.2321197 120.708021,16.5211268 122.292254,16.5211268 C123.876486,16.5211268 125.165493,15.2321197 125.165493,13.6478873 C125.165493,12.0636549 123.876486,10.7746479 122.292254,10.7746479 L122.292254,10.7746479 Z" id="Shape"></path>
                            <path d="M151.742958,10.7746479 C150.158725,10.7746479 148.869718,12.0636549 148.869718,13.6478873 C148.869718,15.2321197 150.158725,16.5211268 151.742958,16.5211268 C153.32719,16.5211268 154.616197,15.2321197 154.616197,13.6478873 C154.616197,12.0636549 153.32719,10.7746479 151.742958,10.7746479 L151.742958,10.7746479 Z" id="Shape"></path>
                        </g>
                    </g>
                </g>
            </g>
        </g>
    </g>
</svg>