<?xml version="1.0" encoding="UTF-8" standalone="no"?>
<svg width="20px" height="29px" viewBox="0 0 20 29" version="1.1" xmlns="http://www.w3.org/2000/svg" xmlns:xlink="http://www.w3.org/1999/xlink">
    <!-- Generator: Sketch 3.6.1 (26313) - http://www.bohemiancoding.com/sketch -->
    <title>Down Arrow</title>
    <desc>Created with Sketch.</desc>
    <defs></defs>
    <g id="Page-1" stroke="none" stroke-width="1" fill="none" fill-rule="evenodd">
        <g id="UX-Portfolio" transform="translate(-710.000000, -656.000000)" fill="#FFFFFF">
            <g id="Hero-Landing-Page">
                <g id="Down-Arrow" transform="translate(710.000000, 656.000000)">
                    <g id="Capa_1">
                        <path d="M19.5973118,17.8380971 C19.0724731,17.3181614 18.2212903,17.3181614 17.6964516,17.8380971 L11.3888172,24.085526 L11.3888172,1.33125691 C11.3888172,0.596083593 10.7868817,0 10.0447312,0 C9.30236559,0 8.70064516,0.596083593 8.70064516,1.33125691 L8.70064516,24.085526 L2.39301075,17.8383101 C1.86795699,17.3184809 1.01698925,17.3184809 0.492150538,17.8383101 C-0.0329032258,18.3582458 -0.0329032258,19.2010911 0.492150538,19.7210268 L9.09430108,28.240858 C9.35655914,28.5007194 9.70075269,28.6307566 10.0447312,28.6307566 C10.3887097,28.6307566 10.7325806,28.5007194 10.9951613,28.240858 L19.5973118,19.7208138 C20.1222581,19.2008781 20.1222581,18.3580328 19.5973118,17.8380971 L19.5973118,17.8380971 Z" id="Shape"></path>
                    </g>
                </g>
            </g>
        </g>
    </g>
</svg>