<?xml version="1.0" encoding="UTF-8" standalone="no"?>
<svg width="37px" height="37px" viewBox="0 0 37 37" version="1.1" xmlns="http://www.w3.org/2000/svg" xmlns:xlink="http://www.w3.org/1999/xlink">
    <!-- Generator: Sketch 3.6.1 (26313) - http://www.bohemiancoding.com/sketch -->
    <title>Dribbble_4_</title>
    <desc>Created with Sketch.</desc>
    <defs></defs>
    <g id="Page-1" stroke="none" stroke-width="1" fill="none" fill-rule="evenodd">
        <g id="UX-Portfolio" transform="translate(-583.000000, -5439.000000)" fill="#E64C87">
            <g id="Contact" transform="translate(376.000000, 4310.000000)">
                <g id="Social-Icons" transform="translate(207.000000, 1129.000000)">
                    <path d="M35.1,11.2 C34.6,10.1 34.1,9.1 33.4,8.1 C32.7,7.1 32,6.2 31.2,5.4 C30.4,4.6 29.5,3.8 28.5,3.2 C27.5,2.5 26.5,2 25.4,1.5 C24.3,1 23.1,0.7 22,0.4 C20.8,0.2 19.6,0 18.3,0 C17.1,0 15.8,0.1 14.6,0.4 C13.4,0.6 12.3,1 11.2,1.5 C10.1,2 9.1,2.5 8.1,3.2 C7.1,3.9 6.2,4.6 5.4,5.4 C4.6,6.2 3.8,7.1 3.2,8.1 C2.5,9.1 2,10.1 1.5,11.2 C1,12.3 0.7,13.5 0.4,14.6 C0.2,15.8 -5.68434189e-14,17 -5.68434189e-14,18.3 C-5.68434189e-14,19.5 0.1,20.8 0.4,22 C0.6,23.2 1,24.3 1.5,25.4 C2,26.5 2.5,27.5 3.2,28.5 C3.9,29.5 4.6,30.4 5.4,31.2 C6.2,32 7.1,32.8 8.1,33.4 C9.1,34.1 10.1,34.6 11.2,35.1 C12.3,35.6 13.5,35.9 14.6,36.2 C15.8,36.5 17,36.6 18.3,36.6 C19.5,36.6 20.8,36.5 22,36.2 C23.2,36 24.3,35.6 25.4,35.1 C26.5,34.6 27.5,34.1 28.5,33.4 C29.5,32.7 30.4,32 31.2,31.2 C32,30.4 32.8,29.5 33.4,28.5 C34.1,27.5 34.6,26.5 35.1,25.4 C35.6,24.3 35.9,23.1 36.2,22 C36.4,20.8 36.6,19.6 36.6,18.3 C36.6,17.1 36.5,15.8 36.2,14.6 C35.9,13.5 35.6,12.3 35.1,11.2 L35.1,11.2 Z M18.2,2.7 C22.2,2.7 25.8,4.2 28.5,6.6 C28.5,6.7 26.2,10.1 20.3,12.3 C17.6,7.4 14.7,3.5 14.4,3.2 C15.7,2.9 17,2.7 18.2,2.7 L18.2,2.7 Z M14.5,3.1 C14.5,3.2 14.5,3.2 14.5,3.1 C14.5,3.2 14.5,3.2 14.5,3.1 C14.4,3.2 14.5,3.2 14.5,3.1 L14.5,3.1 Z M11.5,4.2 C11.7,4.5 14.6,8.4 17.3,13.2 C9.8,15.2 3.3,15.1 2.8,15.1 C3.9,10.3 7.2,6.3 11.5,4.2 L11.5,4.2 Z M6.6,28.8 C4.1,26 2.6,22.4 2.6,18.3 L2.6,17.8 C2.9,17.8 10.6,18 18.7,15.6 C19.1,16.5 19.6,17.4 20,18.3 C19.8,18.4 19.6,18.4 19.4,18.5 C10.9,21.2 6.6,28.8 6.6,28.8 L6.6,28.8 L6.6,28.8 Z M18.2,34 C14.5,34 11.1,32.7 8.4,30.6 C8.3,30.6 8.3,30.5 8.2,30.4 L8.4,30.6 C8.5,30.7 8.6,30.7 8.6,30.7 C8.6,30.7 11.6,24.2 20.9,20.9 L21,20.9 C23.2,26.6 24.1,31.4 24.3,32.8 C22.5,33.6 20.4,34 18.2,34 L18.2,34 Z M27,31.3 C26.8,30.4 26,25.8 24,20.1 C29.1,19.3 33.4,20.7 33.8,20.8 C33,25.2 30.5,29 27,31.3 L27,31.3 Z M23,17.7 C22.9,17.4 22.8,17.2 22.7,16.9 C22.4,16.1 22,15.4 21.7,14.6 C27.9,12.1 30.4,8.4 30.4,8.4 C32.6,11.1 33.9,14.5 34,18.2 C33.7,18.1 28.4,17 23,17.7 L23,17.7 Z" id="Dribbble_4_"></path>
                </g>
            </g>
        </g>
    </g>
</svg>