<?xml version="1.0" encoding="UTF-8" standalone="no"?>
<svg width="30px" height="28px" viewBox="0 0 30 28" version="1.1" xmlns="http://www.w3.org/2000/svg" xmlns:xlink="http://www.w3.org/1999/xlink">
    <!-- Generator: Sketch 3.6.1 (26313) - http://www.bohemiancoding.com/sketch -->
    <title>shapes</title>
    <desc>Created with Sketch.</desc>
    <defs></defs>
    <g id="Page-1" stroke="none" stroke-width="1" fill="none" fill-rule="evenodd">
        <g id="UX-Portfolio" transform="translate(-194.000000, -5907.000000)" fill="#D80027">
            <g id="Footer" transform="translate(0.000000, 5851.000000)">
                <g id="Location" transform="translate(50.000000, 56.000000)">
                    <g id="shapes" transform="translate(144.000000, 0.000000)">
                        <g id="Capa_1">
                            <path d="M21.3133032,0.0461992062 C18.8102036,0.0461992062 16.5560633,1.16334908 14.9777376,2.94797203 C13.3995475,1.16334908 11.1452715,0.0461992062 8.64217195,0.0461992062 C3.86932127,0.0461992062 0,4.10649027 0,9.11525988 C0,10.4610244 0.226561086,11.756099 0.623348416,12.9927953 C0.623348416,12.9927953 0.983144796,14.1086524 1.30187783,14.7229182 C4.94470588,22.5766471 14.9777376,27.6695143 14.9777376,27.6695143 C14.9777376,27.6695143 25.0107692,22.5765791 28.6535973,14.7229182 C28.6535973,14.7229182 29.1236199,13.6764619 29.3321267,12.9927953 C29.7109955,11.7503837 29.9554751,10.4610244 29.9554751,9.11525988 C29.9554751,4.10649027 26.0861538,0.0461992062 21.3133032,0.0461992062 L21.3133032,0.0461992062 Z" id="Shape"></path>
                        </g>
                    </g>
                </g>
            </g>
        </g>
    </g>
</svg>