<?xml version="1.0" encoding="UTF-8" standalone="no"?>
<svg width="38px" height="34px" viewBox="0 0 38 34" version="1.1" xmlns="http://www.w3.org/2000/svg" xmlns:xlink="http://www.w3.org/1999/xlink">
    <!-- Generator: Sketch 3.6.1 (26313) - http://www.bohemiancoding.com/sketch -->
    <title>LinkedIn_4_</title>
    <desc>Created with Sketch.</desc>
    <defs></defs>
    <g id="Page-1" stroke="none" stroke-width="1" fill="none" fill-rule="evenodd">
        <g id="UX-Portfolio" transform="translate(-700.000000, -5440.000000)" fill="#187FB8">
            <g id="Contact" transform="translate(376.000000, 4310.000000)">
                <g id="Social-Icons" transform="translate(207.000000, 1129.000000)">
                    <g id="LinkedIn_4_" transform="translate(117.000000, 1.000000)">
                        <rect id="Rectangle-path" x="1.3" y="10.8" width="7.2" height="22.8"></rect>
                        <path d="M28.1,10.6 C24,10.6 21.4,12.8 20.9,14.4 L20.9,10.8 L12.8,10.8 C12.9,12.7 12.8,33.6 12.8,33.6 L20.9,33.6 L20.9,21.3 C20.9,20.6 20.9,19.9 21.1,19.4 C21.7,18 22.8,16.6 25,16.6 C27.8,16.6 29.1,18.7 29.1,21.8 L29.1,33.6 L37.3,33.6 L37.3,20.9 C37.2,13.9 33.2,10.6 28.1,10.6 L28.1,10.6 Z" id="Shape"></path>
                        <path d="M4.7,0.1 C2,0.1 0.3,1.8 0.3,4.1 C0.3,6.3 2,8 4.6,8 L4.7,8 C7.4,8 9.1,6.3 9.1,4 C9,1.8 7.4,0.1 4.7,0.1 L4.7,0.1 Z" id="Shape"></path>
                    </g>
                </g>
            </g>
        </g>
    </g>
</svg>