<?xml version="1.0" encoding="UTF-8" standalone="no"?>
<svg width="144px" height="153px" viewBox="0 0 144 153" version="1.1" xmlns="http://www.w3.org/2000/svg" xmlns:xlink="http://www.w3.org/1999/xlink">
    <!-- Generator: Sketch 3.6.1 (26313) - http://www.bohemiancoding.com/sketch -->
    <title>people</title>
    <desc>Created with Sketch.</desc>
    <defs></defs>
    <g id="Page-1" stroke="none" stroke-width="1" fill="none" fill-rule="evenodd">
        <g id="UX-Portfolio" transform="translate(-271.000000, -1492.000000)" fill="#58C9B9">
            <g id="Service" transform="translate(185.000000, 1341.000000)">
                <g id="User-Resarch" transform="translate(0.000000, 151.000000)">
                    <g id="people" transform="translate(86.000000, 0.000000)">
                        <g id="Capa_1">
                            <g id="Group">
                                <path d="M141.49697,147.837813 L124.699057,147.837813 L124.699057,142.781245 C124.699057,131.201613 121.606517,122.264439 115.507442,116.217484 C107.734737,108.511877 97.9710755,108.500032 97.5792769,108.493781 L85.1989016,108.493781 L85.1989016,100.617735 C93.1073684,97.3455097 98.1074966,91.8980516 101.154233,87.1744645 C105.910188,79.8008516 106.983103,72.7046129 107.025941,72.4061806 C107.043076,72.2887161 107.051643,72.1705935 107.051643,72.0521419 L107.051643,71.5237161 C108.787551,71.0963032 110.297739,70.2019935 111.49686,68.8763226 C114.995698,65.0078903 114.792714,58.904671 114.542938,56.4602903 C114.352805,54.5999419 113.509565,53.0386839 112.104824,51.9453097 C111.829016,51.7307806 111.540027,51.540929 111.242801,51.3737806 L111.242801,40.9799806 C111.242801,28.0358516 105.342096,19.1299355 100.391396,13.9381355 C95.0502151,8.33636129 89.712,5.7834 89.4872677,5.67745161 C88.7026819,5.30761935 87.7816751,5.37572903 87.061016,5.8557871 L84.3335835,7.67171613 C74.1672494,-0.925567742 64.053968,0.370819355 63.6084577,0.433006452 C62.3882471,0.604103226 61.4807506,1.64647742 61.4807506,2.87672903 L61.4807506,5.39514194 C52.3164851,4.38270968 46.2081831,7.35913548 45.9274325,7.49930323 C45.3306728,7.79707742 44.8802197,8.32287097 44.6778947,8.95724516 C44.4752403,9.59161935 44.5381785,10.2806129 44.851881,10.8682645 L46.165016,13.3271226 C46.5129886,14.7626903 45.6321831,15.7369548 42.387405,18.6011806 C40.8986362,19.9156645 39.211167,21.4051935 37.4640549,23.3244387 C32.1152952,29.1996387 32.9308558,46.0641871 33.3091442,51.1145032 C32.832,51.3379161 32.3686957,51.6106839 31.9383432,51.9456387 C30.5332723,53.0390129 29.6903616,54.5999419 29.5005584,56.4609484 C29.2507826,58.905329 29.0477986,65.0085484 32.5466362,68.8766516 C33.7592677,70.217129 35.2902151,71.1153871 37.050508,71.5368774 L37.050508,72.052471 C37.050508,72.1709226 37.0590755,72.2893742 37.0762105,72.4065097 C37.1193776,72.7049419 38.1922929,79.8011806 42.9479176,87.1747935 C45.9946545,91.8983806 50.9947826,97.3458387 58.9032494,100.618065 L58.9032494,108.493781 L46.5403387,108.493781 C46.1165767,108.49411 36.3684027,108.510561 28.5943799,116.217484 C22.4953043,122.26411 19.4027643,131.201613 19.4027643,142.781245 L19.4027643,147.837813 L2.6055103,147.837813 C1.24031121,147.837813 0.134114416,148.942703 0.134114416,150.305555 C0.134114416,151.668406 1.24031121,152.773297 2.6055103,152.773297 L141.49697,152.773297 C142.862169,152.773297 143.968366,151.668406 143.968366,150.305555 C143.968366,148.942703 142.862169,147.837813 141.49697,147.837813 L141.49697,147.837813 Z M97.5974005,113.429923 L97.6003661,113.429923 C97.7951121,113.429923 105.741803,113.491123 112.02508,119.720361 C117.155368,124.806213 119.756595,132.565452 119.756595,142.781574 L119.756595,147.838142 L75.6622792,147.838142 L87.8960183,141.615813 C88.6723661,141.220974 89.1831213,140.446761 89.2401281,139.578774 L89.6553227,133.272542 L97.0573181,129.109626 C98.0290709,128.563103 98.5137941,127.434194 98.2406224,126.35431 L94.9671762,113.429923 L97.5974005,113.429923 L97.5974005,113.429923 Z M52.8621693,117.807039 L64.9189565,140.648458 L59.3270114,137.804632 L59.031103,131.659297 C58.9902426,130.811381 58.5160641,130.044077 57.7753043,129.627852 L50.8540778,125.7354 L52.8621693,117.807039 L52.8621693,117.807039 Z M92.9854462,125.735071 L86.0642197,129.627523 C85.3369703,130.03651 84.8657574,130.7844 84.8110572,131.615865 L84.400476,137.854645 L78.9255103,140.639245 L90.9773547,117.80671 L92.9854462,125.735071 L92.9854462,125.735071 Z M78.8075423,42.8284839 C78.0252632,43.0571613 77.4060961,43.656329 77.1530252,44.4302129 C77.1012906,44.5881484 76.488714,46.5087097 76.3031945,49.0386387 C72.8419222,48.2631097 69.831103,48.5299548 67.6684668,49.0017871 C67.4796522,46.4902839 66.8730069,44.5874903 66.8216018,44.4302129 C66.5685309,43.656329 65.9493638,43.0571613 65.1670847,42.8284839 C61.0260137,41.6179742 56.7656568,41.004329 52.5043112,41.004329 C50.6669108,41.004329 48.9761465,41.1194903 47.4570618,41.2958516 C47.8234874,40.8552774 48.028778,40.2992129 48.028778,39.7201161 L48.028778,34.3312258 C50.3123478,33.2289677 57.065849,30.7891935 72.0906178,30.7891935 C87.1157162,30.7891935 93.8692174,33.2289677 96.1524577,34.3312258 L96.1524577,39.7201161 C96.1524577,40.3104 96.3649977,40.8779806 96.7452632,41.3221742 C95.1685126,41.1306774 93.3999817,41.004329 91.4703158,41.004329 C87.2089703,41.004329 82.9489428,41.6179742 78.8075423,42.8284839 L78.8075423,42.8284839 Z M52.5039817,45.9398129 C55.838389,45.9398129 59.1741144,46.3629484 62.4403112,47.1986903 C62.8719817,49.2653419 63.1632769,52.6698387 61.6932906,54.7986774 C60.6981419,56.2391806 58.9592677,57.0058258 56.3768238,57.1420452 C54.4257391,57.2450323 53.0196796,57.2910968 51.8169336,57.2910968 C45.4878535,57.2910968 43.2217483,56.8103806 42.6441007,47.2424516 C44.5418032,46.7008645 48.0086773,45.9398129 52.5039817,45.9398129 L52.5039817,45.9398129 Z M81.5336568,47.1986903 C84.7998535,46.3626194 88.1359085,45.9398129 91.4703158,45.9398129 C95.9290435,45.9398129 99.4193135,46.706129 101.329538,47.2473871 C100.751561,56.8100516 98.4847963,57.2907677 92.1570343,57.2907677 C90.9542883,57.2907677 89.5478993,57.2447032 87.5971442,57.1417161 C85.0147002,57.0054968 83.2758261,56.2388516 82.2806773,54.7983484 C80.810032,52.6688516 81.1026453,49.2620516 81.5336568,47.1986903 L81.5336568,47.1986903 Z M107.828979,65.5685613 C107.591396,65.831129 107.331735,66.0476323 107.051973,66.2292581 L107.051973,55.1754194 C107.324485,55.2070065 107.596668,55.2510968 107.856659,55.3136129 C107.998352,55.3698774 108.145648,55.4146258 108.298874,55.4439097 C108.593794,55.5465677 108.860046,55.6762065 109.072586,55.8426968 C109.308851,56.0279419 109.559286,56.3059742 109.626508,56.9614065 C109.91978,59.8371484 109.602124,63.6085161 107.828979,65.5685613 L107.828979,65.5685613 Z M41.1217208,26.6443742 C42.6875973,24.9245226 44.267643,23.5294258 45.6615103,22.2988452 C49.0763204,19.2842516 52.3016568,16.4368065 50.8343066,11.6770258 C50.7878444,11.526329 50.7272128,11.3808968 50.6527414,11.2417161 L50.5532265,11.0554839 C53.1593959,10.3263484 57.7206041,9.56233548 63.4756613,10.6909161 C64.2006041,10.8324 64.9515789,10.6438645 65.5219771,10.1753226 C66.0927048,9.70645161 66.4232128,9.00725806 66.4232128,8.26956774 L66.4232128,5.29083871 C67.3784897,5.33920645 68.6095744,5.47279355 70.0248604,5.78833548 C74.5386178,6.7941871 78.7070389,9.07865806 82.4144622,12.5789032 C83.2507826,13.3692387 84.5243753,13.4771613 85.4832769,12.8391677 L88.5652723,10.7876516 C92.7152403,13.2053806 106.300339,22.5324581 106.300339,40.9812968 L106.300339,43.5464323 C106.297373,43.5438 106.294737,43.5405097 106.292101,43.5378774 L101.095249,38.6547097 L101.095249,32.915071 C101.095249,32.1747484 100.762435,31.4739097 100.188741,31.0050387 C99.5432128,30.477929 93.2714691,25.8540387 72.0906178,25.8540387 C50.9097666,25.8540387 44.6380229,30.477929 43.9921648,31.0050387 C43.4184714,31.4739097 43.0856568,32.1750774 43.0856568,32.915071 L43.0856568,38.6537226 L37.9754691,43.4552903 C37.9945812,36.5844387 38.7745538,29.2223419 41.1217208,26.6443742 L41.1217208,26.6443742 Z M36.2145172,65.5688903 C34.441373,63.6085161 34.1237162,59.8374774 34.4173181,56.9617355 C34.48454,56.3059742 34.7349748,56.028271 34.9712403,55.8430258 C35.4714508,55.4504903 36.2649336,55.2527419 37.050508,55.1681806 L37.050508,66.2661097 C36.7476796,66.0779032 36.4685767,65.8495548 36.2145172,65.5688903 L36.2145172,65.5688903 Z M47.2020137,84.6547355 C43.335103,78.7285355 42.1712403,72.8615613 41.9929703,71.8507742 L41.9929703,59.6838194 C44.1842746,61.5073161 47.3453547,62.2262516 51.8169336,62.2262516 C53.109968,62.2262516 54.5967597,62.1782129 56.6374737,62.0706194 C60.8062243,61.8504968 63.8812998,60.3392516 65.7766957,57.579329 C66.4983432,56.5284 66.9728513,55.3794194 67.2743616,54.213 C68.8603387,53.6674645 72.3947643,52.8432387 76.7127872,54.2649871 C77.0149565,55.4136387 77.4861693,56.5438645 78.1969428,57.579329 C80.0923387,60.3392516 83.1674142,61.8504968 87.3361648,62.0706194 C89.3765492,62.1782129 90.8636705,62.2262516 92.1567048,62.2262516 C92.1573638,62.2262516 92.1563753,62.2262516 92.1570343,62.2262516 C96.7139588,62.2262516 99.9132632,61.4826387 102.108851,59.5801742 L102.108851,71.8501161 C101.928275,72.8724194 100.763423,78.7338 96.8998078,84.6544065 C91.3609153,93.1427806 83.0777849,97.8107613 72.2800915,98.5293677 L71.8210709,98.5293677 C61.0240366,97.8110903 52.7409062,93.1431097 47.2020137,84.6547355 L47.2020137,84.6547355 Z M71.5808513,103.459916 C71.6342334,103.463206 71.687286,103.465181 71.7406682,103.465181 L72.3618124,103.465181 C72.4151945,103.465181 72.4682471,103.463535 72.5216293,103.459916 C75.3225446,103.278619 77.8924668,102.857129 80.2564394,102.253026 L80.2564394,110.962181 C80.2564394,110.977316 80.2584165,110.992123 80.258746,111.007587 C80.2248055,111.170129 80.2070114,111.338594 80.2070114,111.511335 C80.2070114,116.001639 76.548357,119.654884 72.051405,119.654884 C67.5541236,119.654884 63.8957986,116.001639 63.8957986,111.511335 C63.8957986,111.338594 63.8776751,111.170129 63.8440641,111.007587 C63.8443936,110.992452 63.8463707,110.977645 63.8463707,110.962181 L63.8463707,102.253026 C66.2100137,102.857129 68.7799359,103.278619 71.5808513,103.459916 L71.5808513,103.459916 Z M59.0950297,113.429923 C60.0275698,119.735168 65.4817757,124.590368 72.0510755,124.590368 C78.6203753,124.590368 84.0745812,119.735168 85.0071213,113.429923 L87.7002838,113.429923 L71.9195973,143.326452 L56.1385812,113.429923 L59.0950297,113.429923 L59.0950297,113.429923 Z M24.3458856,142.781574 C24.3458856,113.768497 45.6087872,113.429923 46.5228741,113.429923 L48.8723478,113.429923 L45.5989016,126.35431 C45.32573,127.434194 45.8104531,128.562774 46.7822059,129.109626 L54.1598169,133.258723 L54.4590206,139.472168 C54.5015286,140.356606 55.0155789,141.150561 55.8057666,141.552639 L68.1640641,147.838142 L24.3458856,147.838142 L24.3458856,142.781574 L24.3458856,142.781574 Z" id="Shape"></path>
                                <ellipse id="Oval" cx="54.508778" cy="51.5379677" rx="2.9495286" ry="2.94516774"></ellipse>
                                <ellipse id="Oval" cx="89.594032" cy="51.5379677" rx="2.9495286" ry="2.94516774"></ellipse>
                                <path d="M71.4141144,68.8871806 L72.6883661,68.8871806 C75.9588467,68.8871806 78.6197162,66.2302452 78.6197162,62.9646 C78.6197162,61.6017484 77.5135195,60.4968581 76.1483204,60.4968581 C74.7831213,60.4968581 73.6769245,61.6017484 73.6769245,62.9646 C73.6769245,63.5088194 73.2333913,63.9516968 72.6883661,63.9516968 L71.4141144,63.9516968 C70.8690892,63.9516968 70.4255561,63.5088194 70.4255561,62.9646 C70.4255561,61.6017484 69.3193593,60.4968581 67.9541602,60.4968581 C66.5889611,60.4968581 65.4827643,61.6017484 65.4827643,62.9646 C65.4827643,66.2302452 68.1436339,68.8871806 71.4141144,68.8871806 L71.4141144,68.8871806 Z" id="Shape"></path>
                                <path d="M96.1893638,138.403142 C96.1893638,139.765994 97.2955606,140.870884 98.6607597,140.870884 L106.257831,140.870884 C107.62303,140.870884 108.729227,139.765994 108.729227,138.403142 C108.729227,137.04029 107.62303,135.9354 106.257831,135.9354 L98.6607597,135.9354 C97.2958902,135.9354 96.1893638,137.04029 96.1893638,138.403142 L96.1893638,138.403142 Z" id="Shape"></path>
                                <path d="M87.3717529,82.0524194 C88.228833,80.9912903 88.0620961,79.437929 86.9993959,78.5824452 C85.9366957,77.7266323 84.3807048,77.8934516 83.5242838,78.9539226 C83.4979222,78.9868258 80.5292815,82.2241742 72.6596979,82.2241742 C64.4846499,82.2241742 60.4994416,78.8367871 60.3046957,78.6666774 C59.2957071,77.7618387 57.7430114,77.8375161 56.8276064,78.8404065 C55.9079176,79.8475742 55.9800824,81.4085032 56.9887414,82.3265032 C57.2052357,82.5239226 62.4149382,87.1596581 72.6596979,87.1596581 C82.9492723,87.1596581 86.9496384,82.5752516 87.3717529,82.0524194 L87.3717529,82.0524194 Z" id="Shape"></path>
                            </g>
                        </g>
                    </g>
                </g>
            </g>
        </g>
    </g>
</svg>