<?xml version="1.0" encoding="UTF-8" standalone="no"?>
<svg width="170px" height="153px" viewBox="0 0 170 153" version="1.1" xmlns="http://www.w3.org/2000/svg" xmlns:xlink="http://www.w3.org/1999/xlink">
    <!-- Generator: Sketch 3.6.1 (26313) - http://www.bohemiancoding.com/sketch -->
    <title>technology</title>
    <desc>Created with Sketch.</desc>
    <defs></defs>
    <g id="Page-1" stroke="none" stroke-width="1" fill="none" fill-rule="evenodd">
        <g id="UX-Portfolio" transform="translate(-1011.000000, -1492.000000)" fill="#58C9B9">
            <g id="Service" transform="translate(185.000000, 1341.000000)">
                <g id="Design" transform="translate(754.000000, 151.000000)">
                    <g id="technology" transform="translate(72.000000, 0.000000)">
                        <path d="M163.204951,53.507665 L163.204951,12.1943228 C163.204951,5.58041505 157.823956,0.199419903 151.210049,0.199419903 L11.9949029,0.199419903 C5.38062379,0.199419903 0,5.58041505 0,12.1943228 L0,96.3554636 C0,102.969371 5.38099515,108.350367 11.9949029,108.350367 L51.4492209,108.350367 L46.93275,113.211459 L40.1662136,113.211459 C38.6280437,113.211459 37.3810194,114.458483 37.3810194,115.996653 C37.3810194,117.534823 38.6280437,118.781847 40.1662136,118.781847 L78.9216335,118.781847 L78.9216335,145.643745 C78.9216335,149.524078 82.0785583,152.681374 85.9592621,152.681374 L115.900842,152.681374 C119.781175,152.681374 122.938471,149.524449 122.938471,145.643745 L122.938471,139.986459 L160.423471,139.986459 C165.684146,139.986459 169.963689,135.705058 169.963689,130.442527 L169.963689,62.6360461 C169.963689,58.3420194 167.113879,54.7023277 163.204951,53.507665 L163.204951,53.507665 Z M164.393301,62.6360461 L164.393301,63.3969612 L100.337549,63.3969612 L100.337549,62.6360461 C100.337549,60.4450267 102.120073,58.6625024 104.311092,58.6625024 L160.423471,58.6625024 C162.612633,58.6628738 164.393301,60.4453981 164.393301,62.6360461 L164.393301,62.6360461 Z M115.900842,86.1668519 L100.337549,86.1668519 L100.337549,68.9673495 L164.393301,68.9673495 L164.393301,124.110852 L122.938471,124.110852 L122.938471,93.2041092 C122.938471,89.3237767 119.781175,86.1668519 115.900842,86.1668519 L115.900842,86.1668519 Z M117.368083,96.8653398 L84.4923932,96.8653398 L84.4923932,93.2044806 C84.4923932,92.3956602 85.1504417,91.7372403 85.9596335,91.7372403 L115.901214,91.7372403 C116.710034,91.7372403 117.368454,92.3952888 117.368454,93.2044806 L117.368454,96.8653398 L117.368083,96.8653398 Z M157.634192,14.979517 L157.634192,53.0921141 L104.310721,53.0921141 C99.0481893,53.0921141 94.7667888,57.3735146 94.7667888,62.6360461 L94.7667888,86.1668519 L85.9588908,86.1668519 C82.0815291,86.1668519 78.9268325,89.318949 78.9220049,93.1951966 L5.57001699,93.1951966 L5.57001699,14.979517 L157.634192,14.979517 L157.634192,14.979517 Z M84.4916505,102.435728 L117.36734,102.435728 L117.36734,136.41324 L84.4916505,136.41324 L84.4916505,102.435728 L84.4916505,102.435728 Z M11.9945316,5.76980825 L151.209677,5.76980825 C153.753488,5.76980825 155.950078,7.25970146 156.989883,9.40912864 L6.21395388,9.40912864 C7.25413107,7.25970146 9.45072087,5.76980825 11.9945316,5.76980825 L11.9945316,5.76980825 Z M6.0435,98.7659563 L78.9216335,98.7659563 L78.9216335,102.78035 L11.9945316,102.78035 C9.3047767,102.779978 6.99900728,101.11666 6.0435,98.7659563 L6.0435,98.7659563 Z M54.5363301,113.211459 L59.052801,108.350367 L78.9216335,108.350367 L78.9216335,113.211459 L54.5363301,113.211459 L54.5363301,113.211459 Z M115.900471,147.111357 L85.9588908,147.111357 C85.1500704,147.111357 84.4916505,146.453308 84.4916505,145.644117 L84.4916505,141.983629 L117.36734,141.983629 L117.36734,145.644117 C117.367711,146.452937 116.709291,147.111357 115.900471,147.111357 L115.900471,147.111357 Z M160.4231,134.416442 L122.9381,134.416442 L122.9381,129.681612 L164.39293,129.681612 L164.39293,130.442898 C164.39293,132.633546 162.612262,134.416442 160.4231,134.416442 L160.4231,134.416442 Z" id="Shape"></path>
                    </g>
                </g>
            </g>
        </g>
    </g>
</svg>