<?xml version="1.0" encoding="UTF-8" standalone="no"?>
<svg width="38px" height="32px" viewBox="0 0 38 32" version="1.1" xmlns="http://www.w3.org/2000/svg" xmlns:xlink="http://www.w3.org/1999/xlink">
    <!-- Generator: Sketch 3.6.1 (26313) - http://www.bohemiancoding.com/sketch -->
    <title>Twitter_4_</title>
    <desc>Created with Sketch.</desc>
    <defs></defs>
    <g id="Page-1" stroke="none" stroke-width="1" fill="none" fill-rule="evenodd">
        <g id="UX-Portfolio" transform="translate(-818.000000, -5442.000000)" fill="#24A9E6">
            <g id="Contact" transform="translate(376.000000, 4310.000000)">
                <g id="Social-Icons" transform="translate(207.000000, 1129.000000)">
                    <path d="M271.2,3.6 C269.7,4.5 268.1,5.2 266.3,5.5 C264.9,4 262.9,3 260.7,3 C256.5,3 253,6.5 253,10.9 C253,11.5 253.1,12.1 253.2,12.7 C246.8,12.4 241.2,9.2 237.4,4.5 C236.7,5.7 236.4,7 236.4,8.5 C236.4,11.2 237.8,13.6 239.8,15.1 C238.5,15.1 237.4,14.7 236.3,14.1 L236.3,14.2 C236.3,18 238.9,21.2 242.5,21.9 C241.9,22.1 241.2,22.2 240.5,22.2 C240,22.2 239.5,22.2 239.1,22.1 C240.1,25.2 242.9,27.5 246.3,27.6 C243.7,29.7 240.4,31 236.8,31 C236.2,31 235.6,31 235,30.9 C238.4,33.1 242.4,34.4 246.8,34.4 C260.9,34.4 268.7,22.4 268.7,12 L268.7,11 C270.2,9.9 271.5,8.5 272.5,6.9 C271.1,7.5 269.6,8 268.1,8.1 C269.4,7 270.6,5.5 271.2,3.6 L271.2,3.6 Z" id="Twitter_4_"></path>
                </g>
            </g>
        </g>
    </g>
</svg>